# xmcd
#
# Track frame offsets:
#	150
#	13448
#	28283
#	44311
#	59326
#	74026
#	91284
#	105422
#	117257
#	134537
#
# Disc length: 1988 seconds
#
# Revision: 1
# Processed by: cddbd v1.5.2PL0 Copyright (c) Steve Scherf et al.
# Submitted via: audiograbber 1.83.01
#
DISCID=9307c20a
DTITLE=Jonh Conlee - Greatest Hits Vol 2
DYEAR=1990
DGENRE=Country
TTITLE0=Lifetime Guarantee
TTITLE1=Years After You
TTITLE2=In My Eyes
TTITLE3=As Long As I'm Rockin With You
TTITLE4=I'm Only In It For The Love
TTITLE5=The Old School
TTITLE6=Way Back
TTITLE7=Before My Time
TTITLE8=Working Man
TTITLE9=Blue Highway
EXTD=
EXTT0=
EXTT1=
EXTT2=
EXTT3=
EXTT4=
EXTT5=
EXTT6=
EXTT7=
EXTT8=
EXTT9=
PLAYORDER=
